<svg xmlns="http://www.w3.org/2000/svg" version="1.1" xmlns:xlink="http://www.w3.org/1999/xlink" xmlns:svgjs="http://svgjs.dev/svgjs" width="1000" height="287" viewBox="0 0 1000 287"><g transform="matrix(1,0,0,1,-0.6060408342199821,-0.28333012483892617)"><svg viewBox="0 0 396 114" data-background-color="#ffffff" preserveAspectRatio="xMidYMid meet" height="287" width="1000" xmlns="http://www.w3.org/2000/svg" xmlns:xlink="http://www.w3.org/1999/xlink"><g id="tight-bounds" transform="matrix(1,0,0,1,0.23999217035111542,0.11254227955274132)"><svg viewBox="0 0 395.52 113.77472588129622" height="113.77472588129622" width="395.52"><g><svg viewBox="0 0 579.7731317521198 166.77672213399592" height="113.77472588129622" width="395.52"><g transform="matrix(1,0,0,1,184.25313175211983,49.0746319722015)"><svg viewBox="0 0 395.52 68.62745818959291" height="68.62745818959291" width="395.52"><g id="textblocktransform"><svg viewBox="0 0 395.52 68.62745818959291" height="68.62745818959291" width="395.52" id="textblock"><g><svg viewBox="0 0 395.52 37.01437168141593" height="37.01437168141593" width="395.52"><g transform="matrix(1,0,0,1,0,0)"><svg width="395.52" viewBox="1.7300000190734863 -36.040000915527344 441.3799743652344 41.310001373291016" height="37.01437168141593" data-palette-color="#ff0000"><path d="M21.8-9.28L21.8-9.28Q21.8-10.6 21.25-11.55 20.7-12.5 19.17-13.33 17.63-14.16 14.67-15.06L14.67-15.06Q12.21-15.84 10.06-16.82 7.91-17.8 6.29-19.1 4.66-20.41 3.75-22.14 2.83-23.88 2.83-26.15L2.83-26.15Q2.83-29.1 4.49-31.32 6.15-33.54 9.07-34.79 11.99-36.04 15.8-36.04L15.8-36.04Q19.78-36.04 22.69-34.61 25.61-33.18 27.2-30.71 28.78-28.25 28.78-25.1L28.78-25.1 21.8-25.1Q21.8-26.68 21.14-27.89 20.48-29.1 19.13-29.79 17.77-30.47 15.7-30.47L15.7-30.47Q13.72-30.47 12.4-29.9 11.08-29.32 10.45-28.33 9.81-27.34 9.81-26.12L9.81-26.12Q9.81-24.9 10.63-23.97 11.45-23.05 13.05-22.28 14.65-21.51 17.02-20.8L17.02-20.8Q20.95-19.63 23.56-18.07 26.17-16.5 27.49-14.37 28.81-12.23 28.81-9.33L28.81-9.33Q28.81-6.27 27.22-4.06 25.63-1.86 22.75-0.68 19.87 0.49 15.97 0.49L15.97 0.49Q13.35 0.49 10.83-0.21 8.3-0.9 6.24-2.33 4.17-3.76 2.95-5.93 1.73-8.11 1.73-11.08L1.73-11.08 8.74-11.08Q8.74-9.42 9.27-8.28 9.79-7.13 10.77-6.41 11.74-5.69 13.06-5.36 14.38-5.03 15.97-5.03L15.97-5.03Q17.97-5.03 19.25-5.58 20.53-6.13 21.17-7.09 21.8-8.06 21.8-9.28ZM33.91-35.55L46.92-35.55Q51-35.55 53.93-34.31 56.86-33.08 58.41-30.7 59.96-28.32 59.96-24.8L59.96-24.8Q59.96-22 58.99-19.97 58.03-17.94 56.27-16.58 54.51-15.21 52.1-14.4L52.1-14.4 49.92-13.23 38.62-13.23 38.57-18.85 46.92-18.85Q48.95-18.85 50.29-19.54 51.63-20.24 52.3-21.47 52.98-22.71 52.98-24.34L52.98-24.34Q52.98-26.9 51.5-28.41 50.02-29.91 46.92-29.91L46.92-29.91 40.89-29.91 40.89 0 33.91 0 33.91-35.55ZM53.83 0L45.68-15.87 53.05-15.92 61.33-0.34 61.33 0 53.83 0ZM74.38-6.13L81.39-35.55 85.35-35.55 85.71-30.1 78.22 0 74.02 0 74.38-6.13ZM70.23-35.55L75.97-6.18 75.83 0 71.26 0 63.28-35.55 70.23-35.55ZM92.72-6.27L98.38-35.55 105.32-35.55 97.36 0 92.79 0 92.72-6.27ZM87.28-35.55L94.28-6.01 94.6 0 90.4 0 82.93-30.13 83.37-35.55 87.28-35.55ZM128.46 0L128.46 5.27 106.17 5.27 106.17 0 128.46 0ZM150.33-9.28L150.33-9.28Q150.33-10.6 149.78-11.55 149.23-12.5 147.7-13.33 146.16-14.16 143.2-15.06L143.2-15.06Q140.74-15.84 138.59-16.82 136.44-17.8 134.82-19.1 133.19-20.41 132.28-22.14 131.36-23.88 131.36-26.15L131.36-26.15Q131.36-29.1 133.02-31.32 134.68-33.54 137.6-34.79 140.52-36.04 144.33-36.04L144.33-36.04Q148.31-36.04 151.22-34.61 154.14-33.18 155.73-30.71 157.31-28.25 157.31-25.1L157.31-25.1 150.33-25.1Q150.33-26.68 149.67-27.89 149.01-29.1 147.66-29.79 146.3-30.47 144.23-30.47L144.23-30.47Q142.25-30.47 140.93-29.9 139.61-29.32 138.98-28.33 138.34-27.34 138.34-26.12L138.34-26.12Q138.34-24.9 139.16-23.97 139.98-23.05 141.58-22.28 143.18-21.51 145.55-20.8L145.55-20.8Q149.48-19.63 152.09-18.07 154.7-16.5 156.02-14.37 157.34-12.23 157.34-9.33L157.34-9.33Q157.34-6.27 155.75-4.06 154.16-1.86 151.28-0.68 148.4 0.49 144.5 0.49L144.5 0.49Q141.88 0.49 139.36-0.21 136.83-0.9 134.77-2.33 132.7-3.76 131.48-5.93 130.26-8.11 130.26-11.08L130.26-11.08 137.27-11.08Q137.27-9.42 137.8-8.28 138.32-7.13 139.3-6.41 140.27-5.69 141.59-5.36 142.91-5.03 144.5-5.03L144.5-5.03Q146.5-5.03 147.78-5.58 149.06-6.13 149.7-7.09 150.33-8.06 150.33-9.28ZM182.09-35.55L189.07-35.55 189.07-12.01Q189.07-7.91 187.3-5.13 185.53-2.34 182.48-0.93 179.43 0.49 175.57 0.49L175.57 0.49Q171.64 0.49 168.58-0.93 165.51-2.34 163.77-5.13 162.02-7.91 162.02-12.01L162.02-12.01 162.02-35.55 169.01-35.55 169.01-12.01Q169.01-9.62 169.8-8.11 170.59-6.59 172.06-5.86 173.52-5.13 175.57-5.13L175.57-5.13Q177.62-5.13 179.08-5.86 180.53-6.59 181.31-8.11 182.09-9.62 182.09-12.01L182.09-12.01 182.09-35.55ZM198.32-35.55L204.36-35.55 213.83-9.33 223.28-35.55 229.33-35.55 216.22 0 211.41 0 198.32-35.55ZM195.25-35.55L201.18-35.55 202.23-10.3 202.23 0 195.25 0 195.25-35.55ZM226.45-35.55L232.41-35.55 232.41 0 225.4 0 225.4-10.3 226.45-35.55ZM242.12-35.55L248.15-35.55 257.62-9.33 267.07-35.55 273.13-35.55 260.02 0 255.21 0 242.12-35.55ZM239.05-35.55L244.98-35.55 246.03-10.3 246.03 0 239.05 0 239.05-35.55ZM270.25-35.55L276.2-35.55 276.2 0 269.2 0 269.2-10.3 270.25-35.55ZM306.52-5.62L306.52 0 287.75 0 287.75-5.62 306.52-5.62ZM289.85-35.55L289.85 0 282.84 0 282.84-35.55 289.85-35.55ZM304.06-21.04L304.06-15.55 287.75-15.55 287.75-21.04 304.06-21.04ZM306.43-35.55L306.43-29.91 287.75-29.91 287.75-35.55 306.43-35.55ZM311.04-35.55L324.05-35.55Q328.13-35.55 331.06-34.31 333.99-33.08 335.54-30.7 337.09-28.32 337.09-24.8L337.09-24.8Q337.09-22 336.12-19.97 335.16-17.94 333.4-16.58 331.64-15.21 329.23-14.4L329.23-14.4 327.05-13.23 315.75-13.23 315.7-18.85 324.05-18.85Q326.08-18.85 327.42-19.54 328.76-20.24 329.43-21.47 330.1-22.71 330.1-24.34L330.1-24.34Q330.1-26.9 328.63-28.41 327.15-29.91 324.05-29.91L324.05-29.91 318.02-29.91 318.02 0 311.04 0 311.04-35.55ZM330.96 0L322.8-15.87 330.18-15.92 338.45-0.34 338.45 0 330.96 0ZM350.19-35.55L350.19 0 343.21 0 343.21-35.55 350.19-35.55ZM382.66-5.62L382.66 0 357.69 0 357.69-5.62 382.66-5.62ZM382.22-31.47L360.59 0 355.78 0 355.78-4.2 377.54-35.55 382.22-35.55 382.22-31.47ZM379.73-35.55L379.73-29.91 355.81-29.91 355.81-35.55 379.73-35.55ZM411.18-5.62L411.18 0 392.4 0 392.4-5.62 411.18-5.62ZM394.5-35.55L394.5 0 387.49 0 387.49-35.55 394.5-35.55ZM408.71-21.04L408.71-15.55 392.4-15.55 392.4-21.04 408.71-21.04ZM411.08-35.55L411.08-29.91 392.4-29.91 392.4-35.55 411.08-35.55ZM415.69-35.55L428.7-35.55Q432.78-35.55 435.71-34.31 438.64-33.08 440.19-30.7 441.74-28.32 441.74-24.8L441.74-24.8Q441.74-22 440.78-19.97 439.81-17.94 438.05-16.58 436.3-15.21 433.88-14.4L433.88-14.4 431.71-13.23 420.4-13.23 420.35-18.85 428.7-18.85Q430.73-18.85 432.07-19.54 433.41-20.24 434.09-21.47 434.76-22.71 434.76-24.34L434.76-24.34Q434.76-26.9 433.28-28.41 431.8-29.91 428.7-29.91L428.7-29.91 422.67-29.91 422.67 0 415.69 0 415.69-35.55ZM435.61 0L427.46-15.87 434.83-15.92 443.11-0.34 443.11 0 435.61 0Z" opacity="1" transform="matrix(1,0,0,1,0,0)" fill="#ff0000" class="wordmark-text-0" data-fill-palette-color="primary" id="text-0"></path></svg></g></svg></g><g transform="matrix(1,0,0,1,0,45.75257649047788)"><svg viewBox="0 0 176.4812790813917 22.874881699115043" height="22.874881699115043" width="176.4812790813917"><g transform="matrix(1,0,0,1,0,0)"><svg width="176.4812790813917" viewBox="2.25 -36 281.5799865722656 36.5" height="22.874881699115043" data-palette-color="#ca3433"><path d="M4.8-7.85Q4.75-7.6 4.75-7.15L4.75-7.15Q4.75-4.6 6.98-3.2 9.2-1.8 13.05-1.8L13.05-1.8Q16.5-1.8 18.4-3.18 20.3-4.55 20.3-6.8L20.3-6.8Q20.3-8.55 19.23-9.55 18.15-10.55 16.57-11.08 15-11.6 12.35-12.1L12.35-12.1Q9.3-12.7 7.45-13.33 5.6-13.95 4.3-15.3 3-16.65 3-19.05L3-19.05Q3-22.15 5.5-24.1 8-26.05 12.9-26.05L12.9-26.05Q16.1-26.05 18.2-25 20.3-23.95 21.28-22.38 22.25-20.8 22.25-19.15L22.25-19.15 22.2-18.45 19.7-18.45 19.7-19.1Q19.7-20.7 18.28-22.23 16.85-23.75 12.45-23.75L12.45-23.75Q8.2-23.75 6.88-22.3 5.55-20.85 5.55-19.15L5.55-19.15Q5.55-17.7 6.55-16.8 7.55-15.9 9.05-15.43 10.55-14.95 13.2-14.4L13.2-14.4Q16.25-13.75 18.2-13.1 20.15-12.45 21.5-11.05 22.85-9.65 22.85-7.3L22.85-7.3Q22.85-3.2 20.03-1.35 17.2 0.5 12.4 0.5L12.4 0.5Q8.75 0.5 6.48-0.65 4.2-1.8 3.23-3.45 2.25-5.1 2.25-6.6L2.25-6.6Q2.25-7.2 2.27-7.5 2.3-7.8 2.3-7.85L2.3-7.85 4.8-7.85ZM48.2-3.8Q46.9-1.8 44.7-0.65 42.5 0.5 39.95 0.5L39.95 0.5Q35.75 0.5 33.17-1.9 30.6-4.3 30.6-9.1L30.6-9.1 30.6-25.55 33.15-25.55 33.15-9.85Q33.15-5.8 35.02-3.8 36.9-1.8 40.35-1.8L40.35-1.8Q42.55-1.8 44.35-2.85 46.15-3.9 47.17-5.75 48.2-7.6 48.2-9.85L48.2-9.85 48.2-25.55 50.75-25.55 50.75-3.45Q50.75-1.8 52.1-1.8L52.1-1.8Q53.25-1.8 54.6-2.6L54.6-2.6 54.6-0.45Q53.2 0.5 51.4 0.5L51.4 0.5Q49.7 0.5 48.95-0.78 48.2-2.05 48.2-3.8L48.2-3.8ZM86.9-26.05Q90.7-26.05 93.09-23.63 95.5-21.2 95.5-16.45L95.5-16.45 95.5 0 92.95 0 92.95-15.7Q92.95-23.75 86.7-23.75L86.7-23.75Q83.7-23.75 81.8-21.45 79.9-19.15 79.9-15.7L79.9-15.7 79.9 0 77.34 0 77.34-15.7Q77.34-23.75 71.09-23.75L71.09-23.75Q68.09-23.75 66.2-21.45 64.3-19.15 64.3-15.7L64.3-15.7 64.3 0 61.75 0 61.75-25.55 63.45-25.55 64.05-21.75Q65.15-23.75 67.09-24.9 69.05-26.05 71.3-26.05L71.3-26.05Q73.84-26.05 75.87-24.95 77.9-23.85 79-21.7L79-21.7Q80.09-23.55 82.17-24.8 84.25-26.05 86.9-26.05L86.9-26.05ZM130.24-26.05Q134.04-26.05 136.44-23.63 138.84-21.2 138.84-16.45L138.84-16.45 138.84 0 136.29 0 136.29-15.7Q136.29-23.75 130.04-23.75L130.04-23.75Q127.04-23.75 125.14-21.45 123.24-19.15 123.24-15.7L123.24-15.7 123.24 0 120.69 0 120.69-15.7Q120.69-23.75 114.44-23.75L114.44-23.75Q111.44-23.75 109.54-21.45 107.64-19.15 107.64-15.7L107.64-15.7 107.64 0 105.09 0 105.09-25.55 106.79-25.55 107.39-21.75Q108.49-23.75 110.44-24.9 112.39-26.05 114.64-26.05L114.64-26.05Q117.19-26.05 119.22-24.95 121.24-23.85 122.34-21.7L122.34-21.7Q123.44-23.55 125.52-24.8 127.59-26.05 130.24-26.05L130.24-26.05ZM166.64-3.45Q166.64-1.8 167.99-1.8L167.99-1.8Q169.14-1.8 170.49-2.6L170.49-2.6 170.49-0.45Q169.09 0.5 167.29 0.5L167.29 0.5Q165.49 0.5 164.79-0.83 164.09-2.15 164.09-4.45L164.09-4.45Q162.54-1.9 160.22-0.7 157.89 0.5 154.74 0.5L154.74 0.5Q151.19 0.5 148.94-1.13 146.69-2.75 146.69-6.65L146.69-6.65Q146.69-10.2 148.82-11.98 150.94-13.75 154.57-14.28 158.19-14.8 164.09-14.8L164.09-14.8 164.09-18Q164.09-21.2 162.57-22.48 161.04-23.75 157.44-23.75L157.44-23.75Q154.14-23.75 152.14-22.48 150.14-21.2 150.14-18.55L150.14-18.55 150.14-17.75 147.69-17.75Q147.59-18.55 147.59-19.05L147.59-19.05Q147.59-22.3 150.37-24.18 153.14-26.05 157.44-26.05L157.44-26.05Q162.09-26.05 164.37-24.2 166.64-22.35 166.64-18.5L166.64-18.5 166.64-3.45ZM164.09-12.5Q158.79-12.5 155.77-12.15 152.74-11.8 150.99-10.53 149.24-9.25 149.24-6.6L149.24-6.6Q149.24-4.1 150.67-2.95 152.09-1.8 155.24-1.8L155.24-1.8Q157.49-1.8 159.52-2.8 161.54-3.8 162.82-5.83 164.09-7.85 164.09-10.8L164.09-10.8 164.09-12.5ZM192.94-16.4L192.94-17.2Q192.94-19.7 191.49-21.73 190.04-23.75 186.69-23.75L186.69-23.75Q184.39-23.75 182.94-22.53 181.49-21.3 180.86-19.55 180.24-17.8 180.24-16.2L180.24-16.2 180.24 0 177.69 0 177.69-25.55 179.39-25.55 179.94-21.75Q179.94-21.95 180.71-23.05 181.49-24.15 183.11-25.1 184.74-26.05 187.19-26.05L187.19-26.05Q191.14-26.05 193.26-23.63 195.39-21.2 195.39-17.6L195.39-17.6Q195.39-17.1 195.34-16.8 195.29-16.5 195.29-16.4L195.29-16.4 192.94-16.4ZM202.09-33.3L202.09-36 205.04-36 205.04-33.3 202.09-33.3ZM204.84 0L202.29 0 202.29-25.55 204.84-25.55 204.84 0ZM230.83 0L212.83 0 212.83-1.2 226.68-23.25 213.68-23.25 213.68-25.55 230.43-25.55 230.43-24.35 216.53-2.3 230.83-2.3 230.83 0ZM257.38-9.45Q257.38-6.35 256.06-4.1 254.73-1.85 252.48-0.68 250.23 0.5 247.43 0.5L247.43 0.5Q244.28 0.5 241.86-1.03 239.43-2.55 238.08-5.45 236.73-8.35 236.73-12.4L236.73-12.4 236.73-13.15Q236.73-17.2 238.06-20.1 239.38-23 241.81-24.53 244.23-26.05 247.38-26.05L247.38-26.05Q250.23-26.05 252.51-24.83 254.78-23.6 256.08-21.28 257.38-18.95 257.38-15.7L257.38-15.7 257.38-12.5 239.28-12.5 239.28-12.1Q239.28-7.1 241.56-4.45 243.83-1.8 247.43-1.8L247.43-1.8Q250.63-1.8 252.76-3.75 254.88-5.7 254.88-9.45L254.88-9.45 257.38-9.45ZM247.38-23.75Q244.03-23.75 241.83-21.45 239.63-19.15 239.33-14.8L239.33-14.8 254.88-14.8 254.88-15.7Q254.88-19.6 252.76-21.68 250.63-23.75 247.38-23.75L247.38-23.75ZM281.38-16.4L281.38-17.2Q281.38-19.7 279.93-21.73 278.48-23.75 275.13-23.75L275.13-23.75Q272.83-23.75 271.38-22.53 269.93-21.3 269.3-19.55 268.68-17.8 268.68-16.2L268.68-16.2 268.68 0 266.13 0 266.13-25.55 267.83-25.55 268.38-21.75Q268.38-21.95 269.15-23.05 269.93-24.15 271.55-25.1 273.18-26.05 275.63-26.05L275.63-26.05Q279.58-26.05 281.7-23.63 283.83-21.2 283.83-17.6L283.83-17.6Q283.83-17.1 283.78-16.8 283.73-16.5 283.73-16.4L283.73-16.4 281.38-16.4Z" opacity="1" transform="matrix(1,0,0,1,0,0)" fill="#ca3433" class="slogan-text-1" data-fill-palette-color="secondary" id="text-1"></path></svg></g></svg></g></svg></g></svg></g><g><svg viewBox="0 0 166.77672213399592 166.77672213399592" height="166.77672213399592" width="166.77672213399592"><g><svg></svg></g><g id="icon-0"><svg viewBox="0 0 166.77672213399592 166.77672213399592" height="166.77672213399592" width="166.77672213399592"><g><path d="M0 83.388c0-46.054 37.334-83.388 83.388-83.388 46.054 0 83.388 37.334 83.389 83.388 0 46.054-37.334 83.388-83.389 83.389-46.054 0-83.388-37.334-83.388-83.389zM83.388 163.439c44.211 0 80.05-35.84 80.051-80.051 0-44.211-35.84-80.05-80.051-80.05-44.211 0-80.05 35.84-80.05 80.05 0 44.211 35.84 80.05 80.05 80.051z" data-fill-palette-color="accent" fill="#ed2647" stroke="transparent"></path></g><g transform="matrix(1,0,0,1,37.81029396693856,35.426157454611854)"><svg viewBox="0 0 91.1561342001188 95.92440722477221" height="95.92440722477221" width="91.1561342001188"><g><svg xmlns="http://www.w3.org/2000/svg" viewBox="2 2 19.005826950073242 20" x="0" y="0" height="95.92440722477221" width="91.1561342001188" class="icon-s-0" data-fill-palette-color="accent" id="s-0"><g data-name="Layer 23" fill="#ed2647" data-fill-palette-color="accent"><path d="M20.71 20.29l-4-4a6.52 6.52 0 1 0-1.41 1.41l4 4a1 1 0 0 0 1.42 0A1 1 0 0 0 20.71 20.29ZM11.5 17A4.5 4.5 0 1 1 16 12.5 4.51 4.51 0 0 1 11.5 17Z" fill="#ed2647" data-fill-palette-color="accent"></path><path d="M16 20H4V5H16V6a1 1 0 0 0 2 0V4a1 1 0 0 0-1-1H14a1 1 0 0 0-1-1H7A1 1 0 0 0 6 3H3A1 1 0 0 0 2 4V21a1 1 0 0 0 1 1H16a1 1 0 0 0 0-2Z" fill="#ed2647" data-fill-palette-color="accent"></path><path d="M14 10H9a1 1 0 0 0 0 2h5a1 1 0 0 0 0-2Z" fill="#ed2647" data-fill-palette-color="accent"></path><path d="M13 13H9a1 1 0 0 0 0 2h4a1 1 0 0 0 0-2Z" fill="#ed2647" data-fill-palette-color="accent"></path></g></svg></g></svg></g></svg></g></svg></g></svg></g><defs></defs></svg><rect width="395.52" height="113.77472588129622" fill="none" stroke="none" visibility="hidden"></rect></g></svg></g></svg>